<svg width="278" height="135" viewBox="0 0 278 135" fill="none" xmlns="http://www.w3.org/2000/svg">
<g clip-path="url(#clip0_513_12)">
<circle cx="263.109" cy="42.7192" r="13.9803" stroke="white" stroke-width="1.69458"/>
<path d="M4.4919 111.891V104.294L43.9654 56.0872L45.2753 60.3664H5.10322V50.76H55.493V58.3578L16.0195 106.564L14.6223 102.285H56.6283V111.891H4.4919ZM67.0281 111.891V50.76H78.3811V111.891H67.0281ZM112.567 111.891L85.8438 50.76H98.1574L121.999 106.04H114.925L139.028 50.76H150.381L123.745 111.891H112.567ZM213.364 112.765C208.59 112.765 204.195 111.979 200.177 110.407C196.16 108.835 192.667 106.652 189.698 103.857C186.728 101.004 184.429 97.6857 182.799 93.9014C181.168 90.0588 180.353 85.8669 180.353 81.3258C180.353 76.7846 181.168 72.6218 182.799 68.8375C184.429 64.9949 186.728 61.6764 189.698 58.8818C192.667 56.029 196.16 53.8166 200.177 52.2447C204.195 50.6727 208.561 49.8867 213.277 49.8867C218.051 49.8867 222.418 50.6727 226.377 52.2447C230.394 53.8166 233.887 56.029 236.856 58.8818C239.825 61.6764 242.125 64.9949 243.755 68.8375C245.386 72.6218 246.201 76.7846 246.201 81.3258C246.201 85.8669 245.386 90.0588 243.755 93.9014C242.125 97.7439 239.825 101.062 236.856 103.857C233.887 106.652 230.394 108.835 226.377 110.407C222.418 111.979 218.08 112.765 213.364 112.765ZM213.277 102.809C216.363 102.809 219.215 102.285 221.835 101.237C224.455 100.189 226.726 98.7046 228.647 96.7833C230.568 94.8038 232.053 92.5332 233.101 89.9715C234.207 87.3516 234.76 84.4697 234.76 81.3258C234.76 78.1819 234.207 75.3291 233.101 72.7674C232.053 70.1474 230.568 67.8768 228.647 65.9556C226.726 63.9761 224.455 62.4623 221.835 61.4144C219.215 60.3664 216.363 59.8424 213.277 59.8424C210.191 59.8424 207.338 60.3664 204.719 61.4144C202.157 62.4623 199.886 63.9761 197.907 65.9556C195.985 67.8768 194.472 70.1474 193.366 72.7674C192.318 75.3291 191.794 78.1819 191.794 81.3258C191.794 84.4114 192.318 87.2642 193.366 89.8842C194.472 92.5041 195.985 94.8038 197.907 96.7833C199.828 98.7046 202.099 100.189 204.719 101.237C207.338 102.285 210.191 102.809 213.277 102.809Z" fill="white"/>
<path d="M156.832 111.891V50.76H168.185V111.891H156.832Z" fill="#DA9807"/>
<line x1="127.417" y1="112.615" x2="115.52" y2="83.168" stroke="#1C1C1C" stroke-width="5.95433"/>
<line x1="81.4707" y1="66.5145" x2="64.892" y2="66.5145" stroke="#1C1C1C" stroke-width="4.67006"/>
<path d="M260.021 44.4538V49.7783H258.283V36.9539H264.317C265.762 36.9539 266.875 37.2786 267.658 37.9278C268.447 38.571 268.841 39.4691 268.841 40.622C268.841 41.5746 268.562 42.3756 268.004 43.0248C267.452 43.6741 266.687 44.0837 265.71 44.2536L269.351 49.7783H267.348L264.017 44.4538H260.021ZM267.093 40.6402C267.093 39.8938 266.839 39.3265 266.329 38.9381C265.825 38.5437 265.097 38.3465 264.145 38.3465H260.021V43.0794H264.217C265.134 43.0794 265.84 42.8671 266.338 42.4423C266.842 42.0115 267.093 41.4108 267.093 40.6402Z" fill="white"/>
</g>
<defs>
<clipPath id="clip0_513_12">
<rect width="278" height="135" fill="white"/>
</clipPath>
</defs>
</svg>
