<svg width="278" height="135" viewBox="0 0 278 135" fill="none" xmlns="http://www.w3.org/2000/svg">
<g clip-path="url(#clip0_355_62)">
<circle cx="263.109" cy="42.7192" r="13.9803" stroke="white" stroke-width="1.69458"/>
<path d="M4.4919 111.892V104.294L43.9654 56.0873L45.2753 60.3665H5.10322V50.7602H55.493V58.3579L16.0195 106.564L14.6223 102.285H56.6283V111.892H4.4919ZM67.0281 111.892V50.7602H78.3811V111.892H67.0281ZM112.567 111.892L85.8438 50.7602H98.1574L121.999 106.04H114.925L139.028 50.7602H150.381L123.745 111.892H112.567ZM213.364 112.765C208.59 112.765 204.195 111.979 200.177 110.407C196.16 108.835 192.667 106.652 189.698 103.857C186.728 101.004 184.429 97.6858 182.799 93.9015C181.168 90.0589 180.353 85.8671 180.353 81.3259C180.353 76.7847 181.168 72.6219 182.799 68.8376C184.429 64.995 186.728 61.6765 189.698 58.8819C192.667 56.0291 196.16 53.8167 200.177 52.2448C204.195 50.6728 208.561 49.8868 213.277 49.8868C218.051 49.8868 222.418 50.6728 226.377 52.2448C230.394 53.8167 233.887 56.0291 236.856 58.8819C239.825 61.6765 242.125 64.995 243.755 68.8376C245.386 72.6219 246.201 76.7847 246.201 81.3259C246.201 85.8671 245.386 90.0589 243.755 93.9015C242.125 97.744 239.825 101.063 236.856 103.857C233.887 106.652 230.394 108.835 226.377 110.407C222.418 111.979 218.08 112.765 213.364 112.765ZM213.277 102.809C216.363 102.809 219.215 102.285 221.835 101.237C224.455 100.189 226.726 98.7047 228.647 96.7834C230.568 94.8039 232.053 92.5333 233.101 89.9716C234.207 87.3517 234.76 84.4698 234.76 81.3259C234.76 78.182 234.207 75.3292 233.101 72.7675C232.053 70.1476 230.568 67.877 228.647 65.9557C226.726 63.9762 224.455 62.4625 221.835 61.4145C219.215 60.3665 216.363 59.8425 213.277 59.8425C210.191 59.8425 207.338 60.3665 204.719 61.4145C202.157 62.4625 199.886 63.9762 197.907 65.9557C195.985 67.877 194.472 70.1476 193.366 72.7675C192.318 75.3292 191.794 78.182 191.794 81.3259C191.794 84.4116 192.318 87.2644 193.366 89.8843C194.472 92.5042 195.985 94.8039 197.907 96.7834C199.828 98.7047 202.099 100.189 204.719 101.237C207.338 102.285 210.191 102.809 213.277 102.809Z" fill="white"/>
<path d="M156.832 111.892V50.7602H168.185V111.892H156.832Z" fill="#BCA08A"/>
<line x1="127.417" y1="112.615" x2="115.52" y2="83.168" stroke="#1C1C1C" stroke-width="5.95433"/>
<line x1="81.4707" y1="66.5147" x2="64.892" y2="66.5147" stroke="#1C1C1C" stroke-width="4.67006"/>
<path d="M258.219 49.7783V36.4351H264.135C265.325 36.4351 266.229 36.5565 266.848 36.7992C267.467 37.0359 267.961 37.4576 268.331 38.0644C268.701 38.6711 268.887 39.3416 268.887 40.0758C268.887 41.0224 268.58 41.8204 267.967 42.4696C267.354 43.1189 266.408 43.5315 265.128 43.7074C265.595 43.932 265.95 44.1534 266.192 44.3719C266.708 44.8452 267.197 45.4368 267.658 46.1467L269.979 49.7783H267.758L265.992 47.0023C265.476 46.2013 265.052 45.5885 264.718 45.1637C264.384 44.739 264.084 44.4417 263.817 44.2718C263.556 44.1019 263.289 43.9835 263.016 43.9168C262.816 43.8743 262.488 43.8531 262.033 43.8531H259.985V49.7783H258.219ZM259.985 42.324H263.78C264.587 42.324 265.219 42.2421 265.674 42.0782C266.129 41.9083 266.475 41.6414 266.711 41.2773C266.948 40.9071 267.066 40.5067 267.066 40.0758C267.066 39.4448 266.836 38.926 266.374 38.5194C265.919 38.1129 265.197 37.9096 264.208 37.9096H259.985V42.324Z" fill="white"/>
</g>
<defs>
<clipPath id="clip0_355_62">
<rect width="278" height="135" fill="white"/>
</clipPath>
</defs>
</svg>
