<svg version="1.1" id="Layer_1" xmlns="http://www.w3.org/2000/svg" xmlns:xlink="http://www.w3.org/1999/xlink" x="0px" y="0px"
	 width="100%" viewBox="0 0 560 446" enable-background="new 0 0 560 446" xml:space="preserve">
<path fill="#000000" opacity="1.000000" stroke="none" 
	d="
M342.000000,447.000000 
	C228.000031,447.000000 114.500053,447.000000 1.000061,447.000000 
	C1.000041,298.333405 1.000041,149.666794 1.000020,1.000141 
	C187.666565,1.000094 374.333130,1.000094 560.999756,1.000047 
	C560.999878,149.666519 560.999878,298.333038 560.999939,446.999786 
	C488.166656,447.000000 415.333344,447.000000 342.000000,447.000000 
M290.416504,267.429260 
	C284.982330,270.799164 279.548157,274.169098 274.113953,277.539001 
	C274.332275,277.900360 274.550568,278.261688 274.768860,278.623047 
	C280.870392,278.145355 286.971893,277.667664 293.929382,277.395020 
	C297.562225,277.381714 301.195068,277.368378 305.691956,277.617859 
	C309.125397,277.779541 312.558868,277.941223 316.848145,278.357361 
	C337.274994,282.168091 357.701843,285.978851 379.260223,290.000671 
	C365.991486,264.001282 352.976776,238.499680 340.098785,212.281128 
	C341.918304,208.007629 344.044098,203.835327 345.495972,199.440384 
	C348.919861,189.075943 348.176697,179.039047 341.743683,169.925385 
	C337.680176,164.168686 330.713226,161.520889 325.211426,163.488327 
	C328.733521,169.964142 331.085938,176.621262 326.546478,185.068100 
	C323.400024,179.692261 320.853027,175.340561 318.017670,170.294678 
	C312.845306,160.077454 307.763916,149.811996 302.400543,139.696060 
	C301.614777,138.214081 299.492096,136.495956 297.979889,136.488327 
	C280.229858,136.398529 262.478302,136.614807 244.252838,136.987518 
	C242.132889,140.977051 240.012939,144.966568 237.470779,149.468231 
	C234.861176,154.589890 232.251572,159.711548 229.221558,165.345688 
	C227.501297,168.905182 225.781021,172.464676 223.627701,176.550766 
	C221.922897,179.976959 220.218094,183.403137 218.048767,187.289490 
	C217.009872,189.523666 215.970963,191.757858 214.465225,194.469772 
	C213.318466,196.991714 212.171707,199.513657 210.589737,202.547684 
	C208.791794,206.051102 206.993866,209.554504 204.755524,213.586273 
	C199.654587,223.489578 194.056686,233.176498 189.618927,243.368561 
	C186.399979,250.761368 183.856110,258.680603 182.542145,266.618500 
	C180.300995,280.157654 187.703217,289.146515 201.218216,291.043640 
	C213.349686,292.746613 224.709534,289.549286 235.781830,285.291595 
	C256.377167,277.371948 275.536102,266.727020 293.594879,254.048645 
	C296.107727,252.284485 299.168121,251.300293 302.307983,250.575592 
	C303.544800,253.317017 304.781616,256.058441 305.340302,259.076813 
	C302.861542,260.544373 300.382751,262.011932 297.184875,263.629730 
	C295.148010,264.833221 293.111145,266.036682 290.416504,267.429260 
z"/>
<path fill="#1A612C" opacity="1.000000" stroke="none" 
	d="
M244.727127,136.750336 
	C262.478302,136.614807 280.229858,136.398529 297.979889,136.488327 
	C299.492096,136.495956 301.614777,138.214081 302.400543,139.696060 
	C307.763916,149.811996 312.845306,160.077454 318.150085,171.062195 
	C316.966522,183.740082 310.197052,192.453720 301.363861,199.696976 
	C295.845703,204.221924 289.777344,208.075882 283.663605,212.051178 
	C282.376770,210.360031 281.299377,208.895996 280.402954,207.328476 
	C277.608185,202.441422 274.881897,197.515167 272.055542,192.260498 
	C270.839935,189.351151 269.793976,186.737396 268.540161,184.227463 
	C260.628143,168.388931 252.670013,152.573441 244.727127,136.750336 
z"/>
<path fill="#1A612C" opacity="1.000000" stroke="none" 
	d="
M306.018433,258.799866 
	C304.781616,256.058441 303.544800,253.317017 302.212524,249.926254 
	C302.368134,248.668564 302.456421,247.885880 302.894043,247.477295 
	C315.228485,235.961105 327.598175,224.482697 339.962097,212.998077 
	C352.976776,238.499680 365.991486,264.001282 379.260223,290.000671 
	C357.701843,285.978851 337.274994,282.168091 316.304810,277.949768 
	C312.513763,271.294739 309.266083,265.047302 306.018433,258.799866 
z"/>
<path fill="#051F1C" opacity="1.000000" stroke="none" 
	d="
M340.030457,212.639618 
	C327.598175,224.482697 315.228485,235.961105 302.894043,247.477295 
	C302.456421,247.885880 302.368134,248.668564 302.046051,249.615967 
	C299.168121,251.300293 296.107727,252.284485 293.594879,254.048645 
	C275.536102,266.727020 256.377167,277.371948 235.781830,285.291595 
	C224.709534,289.549286 213.349686,292.746613 201.218216,291.043640 
	C187.703217,289.146515 180.300995,280.157654 182.542145,266.618500 
	C183.856110,258.680603 186.399979,250.761368 189.618927,243.368561 
	C194.056686,233.176498 199.654587,223.489578 205.033951,213.668549 
	C205.214294,217.879883 204.919281,222.015564 205.057159,226.136734 
	C205.394348,236.215439 211.105042,242.699295 220.967773,241.687561 
	C231.010880,240.657333 240.821350,237.359589 251.143951,235.007599 
	C260.340179,231.503967 269.237793,228.302246 277.879761,224.516891 
	C285.987762,220.965424 285.868805,220.693848 283.955872,212.230942 
	C289.777344,208.075882 295.845703,204.221924 301.363861,199.696976 
	C310.197052,192.453720 316.966522,183.740082 318.294250,171.409286 
	C320.853027,175.340561 323.400024,179.692261 326.546478,185.068100 
	C331.085938,176.621262 328.733521,169.964142 325.211426,163.488327 
	C330.713226,161.520889 337.680176,164.168686 341.743683,169.925385 
	C348.176697,179.039047 348.919861,189.075943 345.495972,199.440384 
	C344.044098,203.835327 341.918304,208.007629 340.030457,212.639618 
M187.608719,255.294647 
	C186.857758,258.362854 185.854279,261.394104 185.398514,264.505554 
	C183.145447,279.887115 190.167786,287.989777 205.644470,288.335846 
	C219.025009,288.635010 231.161331,284.068817 243.131088,278.953735 
	C270.478912,267.267151 295.063629,251.209076 317.113739,231.304825 
	C326.123779,223.171616 335.408417,215.163193 340.649872,203.795441 
	C344.794281,194.806976 345.776306,185.517746 342.048553,176.171127 
	C340.176422,171.477142 337.075592,167.725052 331.418243,166.439102 
	C331.653931,171.215408 332.517883,175.542358 331.937622,179.666092 
	C330.668579,188.685028 325.158325,195.495865 318.546753,201.295166 
	C294.085938,222.750824 265.258301,235.589767 234.008591,243.419342 
	C229.703903,244.497879 225.101212,244.843384 220.647797,244.776413 
	C211.535049,244.639359 206.150299,240.456451 203.049576,231.939453 
	C202.621017,230.762268 202.041199,229.640167 201.531403,228.492554 
	C201.041260,228.369110 200.551132,228.245651 200.061005,228.122192 
	C195.996063,236.930069 191.931122,245.737946 187.608719,255.294647 
z"/>
<path fill="#51626C" opacity="1.000000" stroke="none" 
	d="
M211.024948,202.035614 
	C212.171707,199.513657 213.318466,196.991714 215.069214,194.301773 
	C216.779831,194.458313 217.963516,194.627213 218.981323,195.131119 
	C231.109436,201.135971 243.235764,207.145676 255.294540,213.287704 
	C256.847839,214.078873 258.017334,215.623657 259.164673,217.067993 
	C257.320221,220.353302 255.675735,223.389984 253.649155,226.482819 
	C252.510620,226.686417 251.754150,226.833847 250.881912,226.659149 
	C248.925598,224.763977 247.297516,222.786407 245.207336,221.688782 
	C236.670959,217.205917 228.038834,212.896866 219.340378,208.736206 
	C216.688431,207.467728 213.710709,206.880325 210.859207,205.585251 
	C210.899139,204.138214 210.962051,203.086914 211.024948,202.035614 
z"/>
<path fill="#465660" opacity="1.000000" stroke="none" 
	d="
M218.513275,186.829315 
	C220.218094,183.403137 221.922897,179.976959 224.205338,176.356415 
	C227.775299,177.493805 230.791992,178.773743 233.755417,180.166946 
	C242.825790,184.431290 251.875687,188.739166 261.060425,193.379547 
	C262.677338,197.157898 264.167419,200.586823 265.536804,204.348602 
	C264.888306,205.457840 264.360565,206.234192 263.458832,206.967468 
	C259.899597,205.621277 256.665161,204.425781 253.537933,202.995789 
	C241.844040,197.648544 230.185226,192.224548 218.513275,186.829315 
z"/>
<path fill="#2E3D46" opacity="1.000000" stroke="none" 
	d="
M265.657501,204.015732 
	C264.167419,200.586823 262.677338,197.157898 260.981140,193.007385 
	C259.170868,186.869308 257.566711,181.452805 255.874908,175.668335 
	C254.529129,171.219376 253.149048,167.171249 252.039520,163.050278 
	C250.028702,155.581696 245.691574,150.560516 237.892975,148.956100 
	C240.012939,144.966568 242.132889,140.977051 244.489990,136.868927 
	C252.670013,152.573441 260.628143,168.388931 268.540161,184.227463 
	C269.793976,186.737396 270.839935,189.351151 271.866760,192.590439 
	C269.720215,196.847916 267.688873,200.431824 265.657501,204.015732 
z"/>
<path fill="#052B05" opacity="1.000000" stroke="none" 
	d="
M250.997696,226.981277 
	C251.754150,226.833847 252.510620,226.686417 253.526230,226.862305 
	C252.768143,229.808670 251.750916,232.431671 250.733688,235.054688 
	C240.821350,237.359589 231.010880,240.657333 220.967773,241.687561 
	C211.105042,242.699295 205.394348,236.215439 205.057159,226.136734 
	C204.919281,222.015564 205.214294,217.879883 205.254150,213.404358 
	C206.993866,209.554504 208.791794,206.051102 210.807343,202.291656 
	C210.962051,203.086914 210.899139,204.138214 210.707825,205.953522 
	C210.293121,209.116669 210.006836,211.515778 209.595062,214.282593 
	C209.411377,216.298401 209.228989,217.953079 209.315262,219.593613 
	C209.847610,229.715668 215.186020,234.803009 225.323593,233.956085 
	C230.675659,233.508957 235.919754,231.769348 241.592316,230.571075 
	C244.980591,229.346344 247.989151,228.163803 250.997696,226.981277 
z"/>
<path fill="#3F4E58" opacity="1.000000" stroke="none" 
	d="
M255.962585,176.036316 
	C257.566711,181.452805 259.170868,186.869308 260.854279,192.657944 
	C251.875687,188.739166 242.825790,184.431290 233.755417,180.166946 
	C230.791992,178.773743 227.775299,177.493805 224.421875,176.093124 
	C225.781021,172.464676 227.501297,168.905182 229.821686,165.176178 
	C233.334106,166.198059 236.269623,167.336197 239.153809,168.592148 
	C244.771927,171.038635 250.361298,173.551147 255.962585,176.036316 
z"/>
<path fill="#4C5C66" opacity="1.000000" stroke="none" 
	d="
M218.281021,187.059402 
	C230.185226,192.224548 241.844040,197.648544 253.537933,202.995789 
	C256.665161,204.425781 259.899597,205.621277 263.473450,207.327621 
	C262.362915,210.760345 260.863770,213.789856 259.364624,216.819351 
	C258.017334,215.623657 256.847839,214.078873 255.294540,213.287704 
	C243.235764,207.145676 231.109436,201.135971 218.981323,195.131119 
	C217.963516,194.627213 216.779831,194.458313 215.302643,194.062897 
	C215.970963,191.757858 217.009872,189.523666 218.281021,187.059402 
z"/>
<path fill="#37444F" opacity="1.000000" stroke="none" 
	d="
M255.874908,175.668335 
	C250.361298,173.551147 244.771927,171.038635 239.153809,168.592148 
	C236.269623,167.336197 233.334106,166.198059 230.031876,164.919952 
	C232.251572,159.711548 234.861176,154.589890 237.681885,149.212158 
	C245.691574,150.560516 250.028702,155.581696 252.039520,163.050278 
	C253.149048,167.171249 254.529129,171.219376 255.874908,175.668335 
z"/>
<path fill="#37444F" opacity="1.000000" stroke="none" 
	d="
M305.679382,258.938354 
	C309.266083,265.047302 312.513763,271.294739 315.876892,277.822510 
	C312.558868,277.941223 309.125397,277.779541 305.306030,277.100647 
	C306.568420,270.080750 300.863770,267.514923 297.903992,263.479462 
	C300.382751,262.011932 302.861542,260.544373 305.679382,258.938354 
z"/>
<path fill="#51626C" opacity="1.000000" stroke="none" 
	d="
M297.544434,263.554596 
	C300.863770,267.514923 306.568420,270.080750 304.874023,276.969238 
	C301.195068,277.368378 297.562225,277.381714 293.491211,276.851105 
	C292.393433,273.284851 291.733826,270.262482 291.074249,267.240143 
	C293.111145,266.036682 295.148010,264.833221 297.544434,263.554596 
z"/>
<path fill="#5D7078" opacity="1.000000" stroke="none" 
	d="
M290.745361,267.334717 
	C291.733826,270.262482 292.393433,273.284851 293.063232,276.748596 
	C286.971893,277.667664 280.870392,278.145355 274.768860,278.623047 
	C274.550568,278.261688 274.332275,277.900360 274.113953,277.539001 
	C279.548157,274.169098 284.982330,270.799164 290.745361,267.334717 
z"/>
<path fill="#000000" opacity="1.000000" stroke="none" 
	d="
M259.164673,217.067993 
	C260.863770,213.789856 262.362915,210.760345 263.847412,207.370682 
	C264.360565,206.234192 264.888306,205.457840 265.536804,204.348602 
	C267.688873,200.431824 269.720215,196.847916 271.940308,192.934052 
	C274.881897,197.515167 277.608185,202.441422 280.402954,207.328476 
	C281.299377,208.895996 282.376770,210.360031 283.663605,212.051178 
	C285.868805,220.693848 285.987762,220.965424 277.879761,224.516891 
	C269.237793,228.302246 260.340179,231.503967 251.143951,235.007599 
	C251.750916,232.431671 252.768143,229.808670 253.908310,226.806152 
	C255.675735,223.389984 257.320221,220.353302 259.164673,217.067993 
z"/>
<path fill="#1A612C" opacity="1.000000" stroke="none" 
	d="
M187.737457,254.920227 
	C191.931122,245.737946 195.996063,236.930069 200.061005,228.122192 
	C200.551132,228.245651 201.041260,228.369110 201.531403,228.492554 
	C202.041199,229.640167 202.621017,230.762268 203.049576,231.939453 
	C206.150299,240.456451 211.535049,244.639359 220.647797,244.776413 
	C225.101212,244.843384 229.703903,244.497879 234.008591,243.419342 
	C265.258301,235.589767 294.085938,222.750824 318.546753,201.295166 
	C325.158325,195.495865 330.668579,188.685028 331.937622,179.666092 
	C332.517883,175.542358 331.653931,171.215408 331.418243,166.439102 
	C337.075592,167.725052 340.176422,171.477142 342.048553,176.171127 
	C345.776306,185.517746 344.794281,194.806976 340.649872,203.795441 
	C335.408417,215.163193 326.123779,223.171616 317.113739,231.304825 
	C295.063629,251.209076 270.478912,267.267151 243.131088,278.953735 
	C231.161331,284.068817 219.025009,288.635010 205.644470,288.335846 
	C190.167786,287.989777 183.145447,279.887115 185.398514,264.505554 
	C185.854279,261.394104 186.857758,258.362854 187.737457,254.920227 
z"/>
<path fill="#596A74" opacity="1.000000" stroke="none" 
	d="
M250.881912,226.659149 
	C247.989151,228.163803 244.980591,229.346344 241.398392,230.248383 
	C230.456665,224.616913 220.088608,219.265900 209.720535,213.914902 
	C210.006836,211.515778 210.293121,209.116669 210.730789,206.349274 
	C213.710709,206.880325 216.688431,207.467728 219.340378,208.736206 
	C228.038834,212.896866 236.670959,217.205917 245.207336,221.688782 
	C247.297516,222.786407 248.925598,224.763977 250.881912,226.659149 
z"/>
<path fill="#5D7078" opacity="1.000000" stroke="none" 
	d="
M209.595062,214.282593 
	C220.088608,219.265900 230.456665,224.616913 241.018677,230.290604 
	C235.919754,231.769348 230.675659,233.508957 225.323593,233.956085 
	C215.186020,234.803009 209.847610,229.715668 209.315262,219.593613 
	C209.228989,217.953079 209.411377,216.298401 209.595062,214.282593 
z"/>
</svg>